# xmcd
#
# Track frame offsets:
#	150
#	17010
#	31797
#	50070
#	67236
#	84592
#	101333
#	145810
#	165386
#	181931
#	196879
#	216745
#
# Disc length: 3150 seconds
#
# Revision: 1
# Processed by: cddbd v1.5.2PL0 Copyright (c) Steve Scherf et al.
# Submitted via: audiograbber 1.82.01
#
DISCID=a60c4c0c
DTITLE=Smashing Pumpkins - Zeitgeist
DYEAR=2007
DGENRE=Hard Rock
TTITLE0=Doomsday Clock
TTITLE1=7 Shades Of Black
TTITLE2=Bleeding The Orchid
TTITLE3=That's The Way (My Love Is)
TTITLE4=Tarantula
TTITLE5=Starz
TTITLE6=United States
TTITLE7=Death From Above
TTITLE8=Bring The Light
TTITLE9=Come On) Let's Go!
TTITLE10=Neverlost
TTITLE11=Stellar
EXTD=
EXTT0=
EXTT1=
EXTT2=
EXTT3=
EXTT4=
EXTT5=
EXTT6=
EXTT7=
EXTT8=
EXTT9=
EXTT10=
EXTT11=
PLAYORDER=
